<svg width="228" height="70" viewBox="0 0 228 70" fill="none" xmlns="http://www.w3.org/2000/svg">
<path fill-rule="evenodd" clip-rule="evenodd" d="M227.081 5.92C227.081 9.102 224.417 11.766 221.161 11.766C217.979 11.766 215.315 9.102 215.315 5.92C215.315 2.738 217.979 0 221.161 0C224.417 0 227.081 2.738 227.081 5.92ZM225.971 53.206H216.425V16.206H225.971V53.206ZM29.452 1.406V21.978H10.212V1.406H0V53.206H10.212V31.746H29.452V53.206H39.59V1.406H29.452ZM85.9909 29.706C85.9909 40.732 77.2589 49.242 66.3809 49.242C55.5029 49.242 46.8449 40.732 46.8449 29.706C46.8449 18.68 55.5029 10.17 66.3809 10.17C77.2589 10.17 85.9909 18.68 85.9909 29.706ZM56.3909 29.706C56.3909 35.7 60.7569 39.918 66.3809 39.918C72.0789 39.918 76.4449 35.7 76.4449 29.706C76.4449 23.712 72.0789 19.494 66.3809 19.494C60.7569 19.494 56.3909 23.712 56.3909 29.706ZM102.252 20.35C104.472 17.02 108.32 15.17 113.278 15.17C121.122 15.17 127.264 20.646 127.264 30.488V53.206H117.718V31.672C117.718 26.64 114.684 24.05 110.392 24.05C105.73 24.05 102.252 26.788 102.252 33.226V53.206H92.7064V16.206H102.252V20.35ZM171.379 38.628H143.481C144.813 43.512 148.883 45.584 153.915 45.584C157.615 45.584 160.575 44.03 162.203 41.884L169.899 46.324C166.421 51.356 160.871 54.242 153.767 54.242C141.335 54.242 133.491 45.732 133.491 34.706C133.491 23.68 141.409 15.17 153.027 15.17C163.979 15.17 171.749 23.828 171.749 34.706C171.749 36.112 171.601 37.37 171.379 38.628ZM153.027 23.754C147.921 23.754 144.443 26.492 143.333 31.228H162.203C161.019 25.9 157.023 23.754 153.027 23.754ZM192.286 42.106L201.314 16.206H211.822L197.762 53.206H186.884L172.824 16.206H183.332L192.286 42.106ZM78.826 68.94L66.4999 62.1394L54.1737 68.94C51.9976 70.1406 49.2603 69.3499 48.0598 67.1738C46.8592 64.9977 47.6499 62.2604 49.826 61.0598L62.3937 54.1259C64.9495 52.7158 68.0502 52.7158 70.606 54.1259L83.1737 61.0598C85.3498 62.2604 86.1405 64.9977 84.94 67.1738C83.7394 69.3499 81.0021 70.1406 78.826 68.94Z" fill="#135DED"/>
</svg>
